<?xml version="1.0" encoding="UTF-8" standalone="no"?>
<svg
   xmlns:dc="http://purl.org/dc/elements/1.1/"
   xmlns:cc="http://creativecommons.org/ns#"
   xmlns:rdf="http://www.w3.org/1999/02/22-rdf-syntax-ns#"
   xmlns:svg="http://www.w3.org/2000/svg"
   xmlns="http://www.w3.org/2000/svg"
   xmlns:sodipodi="http://sodipodi.sourceforge.net/DTD/sodipodi-0.dtd"
   xmlns:inkscape="http://www.inkscape.org/namespaces/inkscape"
   width="195"
   height="172"
   viewBox="0 0 207285 34916"
   version="1.1"
   xml:space="preserve"
   style="clip-rule:evenodd;fill-rule:evenodd;stroke-linejoin:round;stroke-miterlimit:2"
   id="svg56"
   sodipodi:docname="logo.svg"
   inkscape:version="1.0.2 (e86c8708, 2021-01-15)"><metadata
     id="metadata62"><rdf:RDF><cc:Work
         rdf:about=""><dc:format>image/svg+xml</dc:format><dc:type
           rdf:resource="http://purl.org/dc/dcmitype/StillImage" /><dc:title /></cc:Work></rdf:RDF></metadata><defs
     id="defs60" /><sodipodi:namedview
     pagecolor="#ffffff"
     bordercolor="#666666"
     borderopacity="1"
     objecttolerance="10"
     gridtolerance="10"
     guidetolerance="10"
     inkscape:pageopacity="0"
     inkscape:pageshadow="2"
     inkscape:window-width="1440"
     inkscape:window-height="847"
     id="namedview58"
     showgrid="false"
     units="px"
     inkscape:zoom="1.8199851"
     inkscape:cx="-25.455453"
     inkscape:cy="67.966989"
     inkscape:window-x="0"
     inkscape:window-y="25"
     inkscape:window-maximized="1"
     inkscape:current-layer="svg56"
     inkscape:document-rotation="0" /><g
     transform="matrix(892.8394,0,0,892.8394,-7725029,-6284086.3)"
     id="g54"
     style="fill:#556ee6;fill-opacity:1"><g
       transform="translate(-0.697613,-0.695752)"
       id="g52"
       style="fill:#556ee6;fill-opacity:1"><g
         transform="matrix(0.54852,0,0,1.96622,7563.12,5258.62)"
         id="g50"
         style="fill:#556ee6;fill-opacity:1"><g
           id="g48"
           style="fill:#556ee6;fill-opacity:1"><g
             transform="matrix(0.921375,0,0,0.257037,353.864,507.248)"
             id="g42"
             style="fill:#556ee6;fill-opacity:1"><g
               transform="matrix(400,0,0,400,123.356,1688.48)"
               id="g4"
               style="fill:#556ee6;fill-opacity:1" /><g
               transform="matrix(400,0,0,400,388.556,1688.48)"
               id="g8"
               style="fill:#556ee6;fill-opacity:1" /><g
               transform="matrix(400,0,0,400,564.156,1688.48)"
               id="g12"
               style="fill:#556ee6;fill-opacity:1" /><g
               transform="matrix(400,0,0,400,717.756,1688.48)"
               id="g16"
               style="fill:#556ee6;fill-opacity:1" /><g
               transform="matrix(400,0,0,400,824.556,1688.48)"
               id="g20"
               style="fill:#556ee6;fill-opacity:1" /><g
               transform="matrix(400,0,0,400,978.156,1688.48)"
               id="g24"
               style="fill:#556ee6;fill-opacity:1" /><g
               transform="matrix(400,0,0,400,1180.96,1688.48)"
               id="g28"
               style="fill:#556ee6;fill-opacity:1" /><g
               transform="matrix(400,0,0,400,1331.36,1688.48)"
               id="g32"
               style="fill:#556ee6;fill-opacity:1" /><g
               transform="matrix(400,0,0,400,1438.16,1688.48)"
               id="g36"
               style="fill:#556ee6;fill-opacity:1" /><g
               transform="matrix(400,0,0,400,1544.96,1688.48)"
               id="g40"
               style="fill:#556ee6;fill-opacity:1" /></g><g
             transform="matrix(2.94111,0,0,0.842976,2185.02,907.444)"
             id="g46"
             style="fill:#556ee6;fill-opacity:1"><path
               d="M 0,15.882 C 3.503,9.914 6.102,5.391 8.793,0.924 c 2.987,-4.958 5.847,-10.013 9.159,-14.748 2.745,-3.922 5.456,-3.867 8.493,-0.087 2.413,3.003 4.216,6.514 6.743,9.404 3.244,4.7 4.649,7.512 11.008,7.236 1.812,-0.079 1.341,4.133 1.233,7.813 -0.035,1.215 -3.552,0.971 -5.747,0.985 -6.506,0.04 -9.61,-2.048 -12.302,-5.535 -1.545,-2 -3.15,-4.061 -5.32,-6.769 -5.499,9.249 -10.622,17.797 -15.677,26.386 -4.711,8.005 -8.252,8.04 -12.981,0.072 -2.956,-4.983 -6.021,-9.903 -8.889,-14.936 -1.568,-2.748 -3.211,-3.217 -5.914,-1.384 -1.507,1.022 -3.521,1.778 -5.321,1.81 -9.836,0.171 -19.679,0.225 -29.509,-0.06 -1.674,-0.048 -4.041,-1.541 -4.827,-3.031 -10.913,-20.724 -6.38,-54.699 28.854,-59.115 12.19,-1.529 23.261,3.008 32.204,11.558 3.326,3.179 5.322,2.994 8.639,-0.038 14.49,-13.248 33.319,-15.49 49.04,-6.242 16.467,9.687 23.072,34.388 12.828,52.571 C 55.729,33.044 34.731,53.486 8.861,68.93 5.582,70.887 2.758,70.746 -0.421,68.791 -15.316,57.212 -31.834,45.351 -45.704,30.497 c -5.551,-5.033 -2.895,-8.386 -1.662,-9.349 0.59,-0.515 1.218,-0.857 1.747,-1.068 1.794,-0.718 2.835,-0.459 4.431,0.543 1.179,0.741 3.059,2.818 4.643,4.197 11.841,11.832 22.039,21.224 37.313,32.43 2.336,2.038 4.292,2.003 6.961,0.191 20.124,-13.66 37.626,-29.934 51.082,-50.332 5.315,-8.056 8.082,-16.696 5.725,-26.429 -2.637,-10.888 -9.27,-18.195 -20.212,-20.574 -10.728,-2.333 -20.649,-0.188 -28.403,8.299 -2.004,2.193 -3.666,4.705 -5.419,7.119 -5.266,7.254 -7.429,7.316 -12.189,-0.123 -4.092,-6.393 -9.229,-11.46 -16.329,-14.373 -9.925,-4.073 -23.787,-1.078 -31.126,6.737 -7.371,7.849 -9.828,22.061 -5.095,31.49 0.739,1.473 3.045,2.921 4.714,3.028 5.596,0.362 14.492,0.718 19.98,-0.148 3.008,-0.474 4.407,-2.429 5.616,-5.28 4.13,-7.205 8.058,-6.556 12.566,0.802 C -7.909,3.294 -4.371,8.878 0,15.882"
               style="fill:#556ee6;fill-rule:nonzero;fill-opacity:1"
               id="path44"
               inkscape:connector-curvature="0" /></g></g></g></g></g><style
     id="style968"
     type="text/css">
	.st0{fill:none;stroke:#000000;stroke-width:20;stroke-linecap:round;stroke-miterlimit:3;}
</style></svg>
